<?xml version="1.0" encoding="iso-8859-1"?>
<!-- Generator: Adobe Illustrator 16.0.0, SVG Export Plug-In . SVG Version: 6.00 Build 0)  -->
<!DOCTYPE svg PUBLIC "-//W3C//DTD SVG 1.1//EN" "http://www.w3.org/Graphics/SVG/1.1/DTD/svg11.dtd">
<svg version="1.1" id="Capa_1" xmlns="http://www.w3.org/2000/svg" xmlns:xlink="http://www.w3.org/1999/xlink" x="0px" y="0px"
	 width="64px" height="64px" viewBox="0 0 64 64" style="enable-background:new 0 0 64 64;" xml:space="preserve">
<g>
	<g>
		<g id="circle_23_">
			<g>
				<path d="M32,0C14.328,0,0,14.327,0,32s14.328,32,32,32s32-14.327,32-32S49.673,0,32,0z M32,62C15.432,62,2,48.568,2,32
					C2,15.432,15.432,2,32,2c16.568,0,30,13.432,30,30C62,48.568,48.568,62,32,62z"/>
			</g>
		</g>
		<g id="Ellipse_9">
			<g>
				<path d="M32,26c-3.313,0-6,2.687-6,6c0,3.312,2.687,6,6,6c3.314,0,6-2.688,6-6C38,28.687,35.314,26,32,26z M32,36
					c-2.209,0-4-1.791-4-4s1.791-4,4-4s4,1.791,4,4S34.209,36,32,36z M44,31h-1.048c-0.476-5.279-4.681-9.478-9.962-9.95
					C32.991,21.032,33,21.018,33,21v-1c0-0.552-0.448-1-1-1s-1,0.448-1,1v1c0,0.018,0.009,0.032,0.01,0.05
					c-5.281,0.472-9.486,4.671-9.962,9.95H20c-0.552,0-1,0.447-1,1s0.448,1,1,1h1.048c0.476,5.275,4.676,9.473,9.952,9.95V44
					c0,0.553,0.448,1,1,1s1-0.447,1-1v-1.05c5.275-0.478,9.477-4.675,9.952-9.95H44c0.552,0,1-0.447,1-1S44.553,31,44,31z M32,41
					c-4.971,0-9-4.029-9-9c0-4.971,4.029-9,9-9c4.971,0,9,4.029,9,9C41,36.971,36.971,41,32,41z"/>
			</g>
		</g>
	</g>
</g>
<g>
</g>
<g>
</g>
<g>
</g>
<g>
</g>
<g>
</g>
<g>
</g>
<g>
</g>
<g>
</g>
<g>
</g>
<g>
</g>
<g>
</g>
<g>
</g>
<g>
</g>
<g>
</g>
<g>
</g>
</svg>
